#!OML:ASF X:\für Bonn\!DataBase\2005_08_11_Bastian_Final\c3d\Bastian.ASF
:FULLY-SPECIFIED
:DEGREES
293
root -1.2015 4.77862 26.4409 -960.145 -16.5847 -879.176
lowerback 69.366 2.28575 14.1082
upperback 23.2095 -4.98389 2.43488
thorax 5.91994 -8.48313 -2.01783
lowerneck -21.4735 -9.88791 -7.66565
upperneck -4.01367 -13.1721 13.4766
head 3.55339 -6.55147 4.06066
rclavicle 5.40694e-014 -3.81667e-014
rhumerus -19.1705 50.2299 -74.136
rradius 42.803
rwrist -6.48458
rhand -17.8295 -0.299011
rfingers 7.12502
rthumb 8.43483 -30.1106
lclavicle 5.40694e-014 -3.81667e-014
lhumerus -198.355 -195.56 253.283
lradius 24.9522
lwrist 50.752
lhand -33.4261 -9.13418
lfingers 7.12502
lthumb -6.62557 20.7422
rfemur -62.561 -35.8322 16.5539
rtibia 138.048
rfoot -18.0229 10.2324
rtoes -31.1663
lfemur -70.4886 9.23525 -35.1782
ltibia 108.808
lfoot -0.446825 -3.53159
ltoes -0.761741
294
root -1.21244 4.71601 26.441 -960.474 -16.2718 -879.064
lowerback 69.369 2.2546 14.2023
upperback 23.1084 -4.93059 2.61627
thorax 5.82692 -8.49658 -1.85571
lowerneck -21.6154 -9.84691 -7.64181
upperneck -3.82203 -13.1042 13.2427
head 3.60284 -6.50818 3.98589
rclavicle -1.74931e-014 -4.92986e-014
rhumerus -20.8318 50.7958 -75.6928
rradius 42.4408
rwrist -6.89758
rhand -18.1146 -0.755886
rfingers 7.12502
rthumb 8.15977 -30.5783
lclavicle -1.74931e-014 -4.92986e-014
lhumerus -199.21 -195.522 253.517
lradius 25.7123
lwrist 50.9595
lhand -33.6009 -9.17852
lfingers 7.12502
lthumb -6.79428 20.6925
rfemur -62.756 -36.1654 16.7233
rtibia 138.267
rfoot -17.8871 10.3571
rtoes -31.3879
lfemur -70.2555 9.12819 -35.1848
ltibia 108.118
lfoot -0.516302 -3.47385
ltoes -1.78481
295
root -1.22238 4.6521 26.4399 -960.805 -15.9946 -878.956
lowerback 69.3547 2.22246 14.281
upperback 23.021 -4.89393 2.80733
thorax 5.74836 -8.52151 -1.67413
lowerneck -21.7785 -9.81606 -7.66332
upperneck -3.60309 -13.0376 13.0197
head 3.66779 -6.46268 3.91966
rclavicle -3.81667e-014 -9.54166e-014
rhumerus -22.5055 51.2838 -77.2517
rradius 42.1231
rwrist -7.28453
rhand -18.3405 -1.36576
rfingers 7.12502
rthumb 7.9417 -31.1966
lclavicle -3.81667e-014 -9.54166e-014
lhumerus -200.039 -195.559 253.749
lradius 26.4327
lwrist 51.1577
lhand -33.722 -9.25088
lfingers 7.12502
lthumb -6.91118 20.6163
rfemur -62.9223 -36.6257 16.8132
rtibia 138.489
rfoot -17.7653 10.5493
rtoes -31.5008
lfemur -70.0068 8.97904 -35.1837
ltibia 107.455
lfoot -0.5984 -3.38932
ltoes -2.23051
296
root -1.23137 4.58857 26.4384 -961.154 -15.6731 -878.86
lowerback 69.3849 2.2003 14.3855
upperback 22.9314 -4.84169 3.00797
thorax 5.67344 -8.54596 -1.49644
lowerneck -21.9338 -9.78278 -7.70475
upperneck -3.4204 -12.9635 12.8079
head 3.72208 -6.41648 3.86196
rclavicle 4.45278e-014 -7.95139e-014
rhumerus -24.1614 51.75 -78.7986
rradius 41.7939
rwrist -7.7176
rhand -18.5193 -1.99964
rfingers 7.12502
rthumb 7.76915 -31.8369
lclavicle 4.45278e-014 -7.95139e-014
lhumerus -200.848 -195.673 253.992
lradius 27.1422
lwrist 51.242
lhand -33.8154 -9.23106
lfingers 7.12502
lthumb -7.00141 20.6331
rfemur -63.0954 -36.9918 16.9768
rtibia 138.707
rfoot -17.627 10.6806
rtoes -31.6948
lfemur -69.74 8.86755 -35.102
ltibia 106.821
lfoot -0.675354 -3.34156
ltoes -1.95799
297
root -1.23837 4.52502 26.4354 -961.498 -15.3746 -878.777
lowerback 69.4323 2.1621 14.4781
upperback 22.8209 -4.79485 3.16679
thorax 5.56905 -8.56098 -1.35292
lowerneck -22.0103 -9.74041 -7.67883
upperneck -3.2313 -12.8918 12.5852
head 3.76317 -6.37271 3.79309
rclavicle -1.43125e-014 -7.95139e-015
rhumerus -25.8901 52.1054 -80.4778
rradius 41.4468
rwrist -8.07684
rhand -18.6823 -2.66136
rfingers 7.12502
rthumb 7.61185 -32.5044
lclavicle -1.43125e-014 -7.95139e-015
lhumerus -201.717 -195.764 254.161
lradius 27.868
lwrist 51.3109
lhand -33.9426 -9.21534
lfingers 7.12502
lthumb -7.12415 20.6448
rfemur -63.2554 -37.4231 17.1097
rtibia 138.934
rfoot -17.5056 10.8128
rtoes -31.8403
lfemur -69.5076 8.7547 -35.0158
ltibia 106.28
lfoot -0.794266 -3.33265
ltoes -1.60562
298
root -1.24541 4.46041 26.4318 -961.857 -15.0512 -878.725
lowerback 69.4919 2.15493 14.5587
upperback 22.7254 -4.7421 3.35259
thorax 5.48471 -8.58812 -1.17981
lowerneck -22.0691 -9.70487 -7.69439
upperneck -3.07477 -12.8178 12.3425
head 3.7922 -6.33159 3.72609
rclavicle -1.04958e-013 -7.4743e-014
rhumerus -27.5597 52.429 -82.0814
rradius 41.1047
rwrist -8.52638
rhand -18.784 -3.28177
rfingers 7.12502
rthumb 7.51361 -33.1283
lclavicle -1.04958e-013 -7.4743e-014
lhumerus -202.634 -195.806 254.371
lradius 28.6985
lwrist 51.4724
lhand -34.048 -9.12192
lfingers 7.12502
lthumb -7.22586 20.7347
rfemur -63.4133 -37.8169 17.2355
rtibia 139.168
rfoot -17.3556 10.9966
rtoes -31.8312
lfemur -69.2976 8.68789 -34.9047
ltibia 105.833
lfoot -0.93981 -3.33742
ltoes -1.12219
299
root -1.2517 4.3944 26.4243 -962.218 -14.7505 -878.668
lowerback 69.5637 2.10743 14.65
upperback 22.6053 -4.7059 3.50958
thorax 5.37014 -8.61111 -1.03143
lowerneck -22.0635 -9.66598 -7.76788
upperneck -2.91583 -12.7269 12.1681
head 3.82129 -6.27846 3.69273
rclavicle -3.02153e-014 -1.90833e-014
rhumerus -29.2998 52.689 -83.7537
rradius 40.7552
rwrist -8.84535
rhand -18.8006 -3.93834
rfingers 7.12502
rthumb 7.49758 -33.7855
lclavicle -3.02153e-014 -1.90833e-014
lhumerus -203.588 -195.881 254.524
lradius 29.4862
lwrist 51.5794
lhand -34.112 -9.08627
lfingers 7.12502
lthumb -7.28771 20.7682
rfemur -63.5831 -38.3592 17.3548
rtibia 139.431
rfoot -17.2627 11.1508
rtoes -32.0608
lfemur -69.0875 8.56687 -34.7831
ltibia 105.454
lfoot -1.08492 -3.35148
ltoes -0.51464
300
root -1.25771 4.32826 26.4157 -962.583 -14.4293 -878.655
lowerback 69.6368 2.0889 14.7485
upperback 22.52 -4.6636 3.66848
thorax 5.2978 -8.63967 -0.893168
lowerneck -22.1199 -9.64249 -7.80097
upperneck -2.77039 -12.665 11.9377
head 3.85016 -6.24454 3.63073
rclavicle 6.99722e-014 6.20208e-014
rhumerus -30.9267 52.8092 -85.3256
rradius 40.3873
rwrist -9.09667
rhand -18.7864 -4.4697
rfingers 7.12502
rthumb 7.51131 -34.3163
lclavicle 6.99722e-014 6.20208e-014
lhumerus -204.504 -195.937 254.693
lradius 30.2752
lwrist 51.6822
lhand -34.2022 -8.99703
lfingers 7.12502
lthumb -7.3747 20.8544
rfemur -63.746 -38.7954 17.4631
rtibia 139.703
rfoot -17.1723 11.3335
rtoes -32.1394
lfemur -68.8692 8.48193 -34.6396
ltibia 105.124
lfoot -1.24121 -3.41675
ltoes 0.14983
301
root -1.26208 4.26104 26.4025 -962.953 -14.1072 -878.65
lowerback 69.7234 2.06374 14.8466
upperback 22.4208 -4.61861 3.81494
thorax 5.20839 -8.66309 -0.765846
lowerneck -22.1289 -9.62492 -7.87636
upperneck -2.6039 -12.6011 11.7571
head 3.88594 -6.20561 3.59148
rclavicle -4.77083e-015 -2.38542e-014
rhumerus -32.5987 52.8856 -86.9169
rradius 40.0626
rwrist -9.32762
rhand -18.712 -4.96415
rfingers 7.12502
rthumb 7.58311 -34.8082
lclavicle -4.77083e-015 -2.38542e-014
lhumerus -205.468 -195.964 254.831
lradius 31.0834
lwrist 51.8016
lhand -34.2745 -8.8663
lfingers 7.12502
lthumb -7.44456 20.9827
rfemur -63.8916 -39.2933 17.565
rtibia 140.003
rfoot -17.0903 11.5182
rtoes -32.1145
lfemur -68.6638 8.3682 -34.4577
ltibia 104.871
lfoot -1.34853 -3.51524
ltoes 1.14024
302
root -1.26663 4.19232 26.3853 -963.327 -13.7809 -878.653
lowerback 69.7876 2.03962 14.9406
upperback 22.341 -4.59116 3.97083
thorax 5.14119 -8.70075 -0.625297
lowerneck -22.1864 -9.60697 -7.99584
upperneck -2.42374 -12.5239 11.5611
head 3.93271 -6.15997 3.55388
rclavicle 5.725e-014 2.54444e-014
rhumerus -34.1689 52.9103 -88.4051
rradius 39.7092
rwrist -9.51805
rhand -18.5747 -5.32759
rfingers 7.12502
rthumb 7.71568 -35.1668
lclavicle 5.725e-014 2.54444e-014
lhumerus -206.38 -196.144 254.963
lradius 31.7561
lwrist 51.7724
lhand -34.3 -8.77209
lfingers 7.12502
lthumb -7.46911 21.0761
rfemur -64.0632 -39.8068 17.6674
rtibia 140.337
rfoot -17.0248 11.699
rtoes -32.0688
lfemur -68.482 8.24541 -34.2683
ltibia 104.68
lfoot -1.41552 -3.66491
ltoes 2.02819
303
root -1.2692 4.12335 26.3658 -963.714 -13.466 -878.66
lowerback 69.8728 2.00853 15.0308
upperback 22.2531 -4.57161 4.1292
thorax 5.06586 -8.74472 -0.47524
lowerneck -22.2396 -9.60864 -8.19122
upperneck -2.22263 -12.4557 11.4243
head 3.99567 -6.11454 3.54409
rclavicle -3.33958e-014 -1.59028e-014
rhumerus -35.7271 52.8759 -89.8482
rradius 39.3807
rwrist -9.64367
rhand -18.4075 -5.64486
rfingers 7.12502
rthumb 7.87706 -35.4781
lclavicle -3.33958e-014 -1.59028e-014
lhumerus -207.289 -196.316 255.104
lradius 32.4122
lwrist 51.7636
lhand -34.3836 -8.66208
lfingers 7.12502
lthumb -7.54979 21.1832
rfemur -64.2037 -40.3859 17.7637
rtibia 140.685
rfoot -16.9973 11.8702
rtoes -32.0422
lfemur -68.3032 8.10088 -34.0656
ltibia 104.547
lfoot -1.44869 -3.8176
ltoes 2.30551
